<svg width="47" height="19" viewBox="0 0 47 19" fill="none" xmlns="http://www.w3.org/2000/svg">
<path d="M16.4419 15.2155C15.4023 15.2155 14.5595 16.0583 14.5595 17.0979C14.5595 18.1375 15.4023 18.9803 16.4419 18.9803V15.2155ZM30.2267 18.9803C31.2664 18.9803 32.1091 18.1375 32.1091 17.0979C32.1091 16.0583 31.2664 15.2155 30.2267 15.2155V18.9803ZM16.4419 18.9803H30.2267V15.2155H16.4419V18.9803Z" fill="#FAFAFA"/>
<path d="M40.9028 15.1766C39.8632 15.1766 39.0204 16.0193 39.0204 17.059C39.0204 18.0986 39.8632 18.9413 40.9028 18.9413V15.1766ZM44.6676 18.9413C45.7072 18.9413 46.55 18.0986 46.55 17.059C46.55 16.0193 45.7072 15.1766 44.6676 15.1766V18.9413ZM40.9028 18.9413H44.6676V15.1766H40.9028V18.9413Z" fill="#FAFAFA"/>
<path d="M2 15.1766C0.960388 15.1766 0.117616 16.0193 0.117615 17.059C0.117615 18.0986 0.960388 18.9413 2 18.9413L2 15.1766ZM5.76477 18.9413C6.80438 18.9413 7.64715 18.0986 7.64715 17.059C7.64715 16.0193 6.80438 15.1766 5.76477 15.1766L5.76477 18.9413ZM2 18.9413L5.76477 18.9413L5.76477 15.1766L2 15.1766L2 18.9413Z" fill="#FAFAFA"/>
<path d="M38.3613 6.75866C39.0964 6.02354 39.0964 4.83168 38.3613 4.09657C37.6262 3.36145 36.4343 3.36145 35.6992 4.09657L38.3613 6.75866ZM33.1894 6.60641C32.4543 7.34153 32.4543 8.53339 33.1894 9.26851C33.9245 10.0036 35.1164 10.0036 35.8515 9.26851L33.1894 6.60641ZM35.6992 4.09657L33.1894 6.60641L35.8515 9.26851L38.3613 6.75866L35.6992 4.09657Z" fill="#FAFAFA"/>
<path d="M25.2154 2C25.2154 0.960388 24.3726 0.117615 23.333 0.117615C22.2934 0.117616 21.4506 0.960388 21.4506 2L25.2154 2ZM21.4506 5.76477C21.4506 6.80438 22.2934 7.64715 23.333 7.64715C24.3726 7.64715 25.2154 6.80438 25.2154 5.76477L21.4506 5.76477ZM21.4506 2L21.4506 5.76477L25.2154 5.76477L25.2154 2L21.4506 2Z" fill="#FAFAFA"/>
<path d="M11.7778 4.09657C11.0427 3.36145 9.85085 3.36145 9.11573 4.09657C8.38061 4.83168 8.38061 6.02354 9.11573 6.75866L11.7778 4.09657ZM11.6256 9.26851C12.3607 10.0036 13.5526 10.0036 14.2877 9.26851C15.0228 8.53339 15.0228 7.34153 14.2877 6.60641L11.6256 9.26851ZM9.11573 6.75866L11.6256 9.26851L14.2877 6.60641L11.7778 4.09657L9.11573 6.75866Z" fill="#FAFAFA"/>
</svg>
