<svg width="48" height="24" viewBox="0 0 48 24" fill="none" xmlns="http://www.w3.org/2000/svg">
<path d="M18.5077 20.5308C17.6793 20.5308 17.0077 21.2023 17.0077 22.0308C17.0077 22.8592 17.6793 23.5308 18.5077 23.5308V20.5308ZM29.4923 23.5308C30.3207 23.5308 30.9923 22.8592 30.9923 22.0308C30.9923 21.2023 30.3207 20.5308 29.4923 20.5308V23.5308ZM18.5077 23.5308H29.4923V20.5308H18.5077V23.5308Z" fill="white"/>
<path d="M38.2461 20.5308C37.4177 20.5308 36.7461 21.2023 36.7461 22.0308C36.7461 22.8592 37.4177 23.5308 38.2461 23.5308V20.5308ZM45.9999 23.5308C46.8284 23.5308 47.4999 22.8592 47.4999 22.0308C47.4999 21.2023 46.8284 20.5308 45.9999 20.5308V23.5308ZM38.2461 23.5308H45.9999V20.5308H38.2461V23.5308Z" fill="white"/>
<path d="M2 20.5308C1.17157 20.5308 0.5 21.2023 0.5 22.0308C0.5 22.8592 1.17157 23.5308 2 23.5308V20.5308ZM9.75385 23.5308C10.5823 23.5308 11.2538 22.8592 11.2538 22.0308C11.2538 21.2023 10.5823 20.5308 9.75385 20.5308V23.5308ZM2 23.5308H9.75385V20.5308H2V23.5308Z" fill="white"/>
<path d="M41.7537 8.01379C42.3394 7.428 42.3394 6.47825 41.7537 5.89246C41.1679 5.30668 40.2181 5.30668 39.6323 5.89246L41.7537 8.01379ZM34.1495 11.3753C33.5637 11.961 33.5637 12.9108 34.1495 13.4966C34.7353 14.0824 35.6851 14.0824 36.2709 13.4966L34.1495 11.3753ZM39.6323 5.89246L34.1495 11.3753L36.2709 13.4966L41.7537 8.01379L39.6323 5.89246Z" fill="white"/>
<path d="M25.8231 2C25.8231 1.17157 25.1515 0.5 24.3231 0.5C23.4947 0.5 22.8231 1.17157 22.8231 2L25.8231 2ZM22.8231 9.75385C22.8231 10.5823 23.4947 11.2538 24.3231 11.2538C25.1515 11.2538 25.8231 10.5823 25.8231 9.75385L22.8231 9.75385ZM22.8231 2L22.8231 9.75385L25.8231 9.75385L25.8231 2L22.8231 2Z" fill="white"/>
<path d="M9.01366 5.89246C8.42788 5.30668 7.47813 5.30668 6.89234 5.89246C6.30656 6.47825 6.30656 7.428 6.89234 8.01379L9.01366 5.89246ZM12.3751 13.4966C12.9609 14.0824 13.9107 14.0824 14.4965 13.4966C15.0822 12.9108 15.0822 11.961 14.4965 11.3753L12.3751 13.4966ZM6.89234 8.01379L12.3751 13.4966L14.4965 11.3753L9.01366 5.89246L6.89234 8.01379Z" fill="white"/>
</svg>
