<svg width="36" height="36" viewBox="0 0 36 36" fill="none" xmlns="http://www.w3.org/2000/svg">
<path fill-rule="evenodd" clip-rule="evenodd" d="M18 0C18.5967 0 19.169 0.237053 19.591 0.65901C20.0129 1.08097 20.25 1.65326 20.25 2.25V4.5C20.25 5.09674 20.0129 5.66903 19.591 6.09099C19.169 6.51295 18.5967 6.75 18 6.75C17.4033 6.75 16.831 6.51295 16.409 6.09099C15.9871 5.66903 15.75 5.09674 15.75 4.5V2.25C15.75 1.65326 15.9871 1.08097 16.409 0.65901C16.831 0.237053 17.4033 0 18 0ZM27 18C27 20.3869 26.0518 22.6761 24.364 24.364C22.6761 26.0518 20.3869 27 18 27C15.6131 27 13.3239 26.0518 11.636 24.364C9.94821 22.6761 9 20.3869 9 18C9 15.613 9.94821 13.3239 11.636 11.636C13.3239 9.94821 15.6131 9 18 9C20.3869 9 22.6761 9.94821 24.364 11.636C26.0518 13.3239 27 15.613 27 18ZM25.956 29.1375L27.5467 30.7282C27.9711 31.1381 28.5395 31.3649 29.1294 31.3598C29.7193 31.3546 30.2837 31.118 30.7008 30.7008C31.118 30.2837 31.3546 29.7193 31.3598 29.1294C31.3649 28.5395 31.1381 27.9711 30.7282 27.5467L29.1375 25.956C28.7131 25.5461 28.1448 25.3194 27.5548 25.3245C26.9649 25.3296 26.4006 25.5662 25.9834 25.9834C25.5662 26.4006 25.3296 26.9649 25.3245 27.5548C25.3194 28.1448 25.5461 28.7131 25.956 29.1375ZM30.726 5.27175C31.1478 5.69369 31.3848 6.26588 31.3848 6.8625C31.3848 7.45912 31.1478 8.03131 30.726 8.45325L29.1375 10.044C28.9299 10.2589 28.6817 10.4303 28.4072 10.5482C28.1327 10.6661 27.8374 10.7282 27.5387 10.7308C27.2399 10.7334 26.9436 10.6765 26.6671 10.5633C26.3906 10.4502 26.1394 10.2831 25.9281 10.0719C25.7169 9.86063 25.5498 9.60941 25.4367 9.3329C25.3235 9.05638 25.2666 8.7601 25.2692 8.46135C25.2718 8.16259 25.3339 7.86735 25.4518 7.59284C25.5697 7.31833 25.7411 7.07006 25.956 6.8625L27.5467 5.27175C27.9687 4.84994 28.5409 4.61298 29.1375 4.61298C29.7341 4.61298 30.3063 4.84994 30.7282 5.27175H30.726ZM33.75 20.25C34.3467 20.25 34.919 20.0129 35.341 19.591C35.7629 19.169 36 18.5967 36 18C36 17.4033 35.7629 16.831 35.341 16.409C34.919 15.9871 34.3467 15.75 33.75 15.75H31.5C30.9033 15.75 30.331 15.9871 29.909 16.409C29.4871 16.831 29.25 17.4033 29.25 18C29.25 18.5967 29.4871 19.169 29.909 19.591C30.331 20.0129 30.9033 20.25 31.5 20.25H33.75ZM18 29.25C18.5967 29.25 19.169 29.4871 19.591 29.909C20.0129 30.331 20.25 30.9033 20.25 31.5V33.75C20.25 34.3467 20.0129 34.919 19.591 35.341C19.169 35.7629 18.5967 36 18 36C17.4033 36 16.831 35.7629 16.409 35.341C15.9871 34.919 15.75 34.3467 15.75 33.75V31.5C15.75 30.9033 15.9871 30.331 16.409 29.909C16.831 29.4871 17.4033 29.25 18 29.25ZM6.8625 10.044C7.0714 10.253 7.31943 10.4189 7.59243 10.5321C7.86543 10.6453 8.15804 10.7036 8.45358 10.7037C8.74911 10.7038 9.04177 10.6457 9.31485 10.5327C9.58793 10.4197 9.83608 10.254 10.0451 10.0451C10.2542 9.83622 10.42 9.58819 10.5332 9.3152C10.6464 9.0422 10.7047 8.74958 10.7048 8.45405C10.7049 8.15851 10.6468 7.86585 10.5338 7.59277C10.4208 7.31969 10.2552 7.07155 10.0463 6.8625L8.45325 5.27175C8.0289 4.86189 7.46054 4.63511 6.8706 4.64023C6.28065 4.64536 5.71633 4.88199 5.29916 5.29916C4.88199 5.71633 4.64536 6.28065 4.64023 6.8706C4.63511 7.46054 4.86189 8.02889 5.27175 8.45325L6.8625 10.044ZM10.044 29.1375L8.45325 30.7282C8.0289 31.1381 7.46054 31.3649 6.8706 31.3598C6.28065 31.3546 5.71633 31.118 5.29916 30.7008C4.88199 30.2837 4.64536 29.7193 4.64023 29.1294C4.63511 28.5395 4.86189 27.9711 5.27175 27.5467L6.8625 25.956C7.28686 25.5461 7.85521 25.3194 8.44515 25.3245C9.0351 25.3296 9.59942 25.5662 10.0166 25.9834C10.4338 26.4006 10.6704 26.9649 10.6755 27.5548C10.6806 28.1448 10.4539 28.7131 10.044 29.1375ZM4.5 20.25C5.09674 20.25 5.66903 20.0129 6.09099 19.591C6.51295 19.169 6.75 18.5967 6.75 18C6.75 17.4033 6.51295 16.831 6.09099 16.409C5.66903 15.9871 5.09674 15.75 4.5 15.75H2.25C1.65326 15.75 1.08097 15.9871 0.65901 16.409C0.237053 16.831 0 17.4033 0 18C0 18.5967 0.237053 19.169 0.65901 19.591C1.08097 20.0129 1.65326 20.25 2.25 20.25H4.5Z" fill="white"/>
</svg>
